<svg width="360" height="410" viewBox="0 0 360 410" fill="none" xmlns="http://www.w3.org/2000/svg">
<mask id="mask0_111_6" style="mask-type:luminance" maskUnits="userSpaceOnUse" x="168" y="0" width="81" height="156">
<path d="M168.615 0H248.72V155.083H168.615V0Z" fill="white"/>
</mask>
<g mask="url(#mask0_111_6)">
<path d="M212.243 -0.0152588L205.136 1.35916C187.091 5.8147 176.154 16.659 172.354 33.9072L176.184 116.357C175.707 124.136 175.633 130.902 175.96 136.672C176.661 148.135 178.032 153.663 180.088 153.255L180.952 152.757C182.129 148.029 184.141 141.973 187.002 134.587C188.313 131.174 190.31 127.458 192.992 123.441C196.523 118.396 207.49 105.8 225.862 85.667C228.589 82.45 231.539 78.3116 234.698 73.267C239.109 65.6246 242.327 57.3781 244.339 48.5728C245.576 42.9392 246.112 37.3962 245.978 31.9438L244.965 25.8118L243.266 20.3292L240.897 15.481C235.443 6.44905 225.892 1.28364 212.243 -0.0152588Z" fill="#622F10"/>
</g>
<mask id="mask1_111_6" style="mask-type:luminance" maskUnits="userSpaceOnUse" x="111" y="0" width="81" height="156">
<path d="M111.396 0H191.501V155.083H111.396V0Z" fill="white"/>
</mask>
<g mask="url(#mask1_111_6)">
<path d="M148.424 -0.0152588L155.532 1.35916C173.576 5.8147 184.498 16.659 188.313 33.9072L184.483 116.357C184.945 124.136 185.02 130.902 184.707 136.672C184.007 148.135 182.636 153.663 180.579 153.255L179.7 152.757C178.538 148.029 176.527 141.973 173.666 134.587C172.354 131.174 170.343 127.458 167.676 123.441C164.129 118.396 153.177 105.8 134.79 85.667C132.078 82.45 129.128 78.3116 125.969 73.267C121.544 65.6246 118.34 57.3781 116.313 48.5728C115.092 42.9392 114.54 37.3962 114.689 31.9438L115.703 25.8118L117.386 20.3292L119.77 15.481C125.224 6.44905 134.76 1.28364 148.424 -0.0152588Z" fill="#622F10"/>
</g>
<path d="M245.069 93.6116L244.935 93.7022C244.592 93.9892 244.324 94.5329 244.16 95.3183C242.864 105.347 241.359 112.914 239.63 118.019C237.678 124.181 234.922 129.875 231.36 135.116C228.172 140.04 222.867 146.353 215.447 154.086C211.334 158.104 203.72 164.341 192.589 172.799C191.055 174.144 189.594 175.563 188.223 177.074C183.977 181.786 180.624 187.057 178.195 192.902C176.124 197.826 174.381 204.924 172.98 214.183C173.621 222.867 174.694 231.22 176.199 239.24C177.361 243.348 179 244.798 181.146 243.589C182.233 242.623 185.363 237.76 190.533 229.03C191.561 227.655 192.738 226.341 194.05 225.057C196.627 222.384 200.308 219.469 205.076 216.297C216.341 208.61 227.054 201.511 237.216 195.001C240.465 192.676 242.625 191.014 243.698 190.048C250.061 184.988 255.022 178.448 258.584 170.428C262.637 160.475 263.501 148.528 261.176 134.587C259.388 124.846 256.542 115.074 252.609 105.271C251.521 102.659 250.478 100.453 249.45 98.6864C248.898 97.2666 247.438 95.575 245.069 93.6116Z" fill="#622F10"/>
<path d="M115.598 93.6116L115.732 93.7022C116.075 93.9892 116.328 94.5329 116.507 95.3183C117.789 105.347 119.309 112.914 121.037 118.019C122.974 124.181 125.731 129.875 129.307 135.116C132.495 140.04 137.8 146.353 145.206 154.086C149.333 158.104 156.947 164.341 168.063 172.799C169.613 174.144 171.058 175.563 172.429 177.074C176.69 181.786 180.028 187.057 182.472 192.902C184.543 197.826 186.286 204.924 187.687 214.183C187.046 222.867 185.973 231.22 184.468 239.24C183.306 243.348 181.667 244.798 179.522 243.589C178.434 242.623 175.305 237.76 170.134 229.03C169.106 227.655 167.929 226.341 166.618 225.057C164.025 222.384 160.359 219.469 155.591 216.297C144.312 208.61 133.598 201.511 123.451 195.001C120.203 192.676 118.027 191.014 116.954 190.048C110.607 184.988 105.645 178.448 102.084 170.428C98.0306 160.475 97.1664 148.528 99.4908 134.587C101.279 124.846 104.125 115.074 108.059 105.271C109.131 102.659 110.189 100.453 111.218 98.6864C111.754 97.2666 113.229 95.575 115.598 93.6116Z" fill="#622F10"/>
<path d="M280.398 105.12L281.471 116.78C282.499 131.99 281.888 145.84 279.653 158.33C277.954 169.884 273.544 181.952 266.391 194.548C262.666 201.3 255.559 209.546 245.069 219.318C237.306 226.009 223.567 236.128 203.824 249.661C201.276 251.504 197.67 254.827 193.021 259.629C188.059 265.535 185.318 269.054 184.766 270.187C183.217 272.498 181.846 274.793 180.669 277.059C179.477 279.34 178.493 281.59 177.674 283.81C176.869 286.046 176.243 288.266 175.811 290.456L170.626 303.596C173.874 328.622 177.257 339.859 180.803 337.292C190.518 325.058 197.134 317.642 200.635 315.044C238.632 292.238 261.668 277.014 269.729 269.371C279.385 259.705 286.537 250.129 291.156 240.659C296.833 230.057 301.274 218.276 304.492 205.302C305.371 201.209 305.982 197.131 306.34 193.068L306.668 186.997C306.742 182.949 306.563 178.931 306.116 174.929C299.649 139.36 291.067 116.086 280.398 105.12Z" fill="#622F10"/>
<path d="M80.2692 105.12L79.1964 116.78C78.1682 131.99 78.7792 145.84 81.0142 158.33C82.7129 169.884 87.1235 181.952 94.2757 194.548C98.0008 201.3 105.108 209.546 115.583 219.318C123.347 226.009 137.1 236.128 156.843 249.661C159.391 251.504 162.982 254.827 167.646 259.629C172.608 265.535 175.349 269.054 175.901 270.187C177.45 272.498 178.821 274.793 179.998 277.059C181.176 279.34 182.174 281.59 182.979 283.81C183.798 286.046 184.424 288.266 184.856 290.456L190.041 303.596C186.793 328.622 183.396 339.859 179.864 337.292C170.149 325.058 163.533 317.642 160.032 315.044C122.02 292.238 98.9992 277.014 90.9231 269.371C81.2676 259.705 74.1302 250.129 69.511 240.659C63.8339 230.057 59.3936 218.276 56.1751 205.302C55.2959 201.209 54.685 197.131 54.3274 193.068L53.9996 186.997C53.9251 182.949 54.1039 178.931 54.5509 174.929C61.0178 139.36 69.6004 116.086 80.2692 105.12Z" fill="#622F10"/>
<mask id="mask2_111_6" style="mask-type:luminance" maskUnits="userSpaceOnUse" x="157" y="116" width="203" height="294">
<path d="M157.171 116.418H359.237V410H157.171V116.418Z" fill="white"/>
</mask>
<g mask="url(#mask2_111_6)">
<path d="M311.868 118.517L311.496 118.532C310.542 118.608 309.782 119.031 309.26 119.756C319.348 147.894 324.891 169.054 325.889 183.221C327.067 203.822 324.236 222.867 317.411 240.342C309.633 257.228 298.279 271.788 283.363 284.037C277.195 290.879 253.935 306.027 213.599 329.468C207.192 333.939 200.829 339.512 194.526 346.188C184.439 357.289 177.078 372.755 172.444 392.555L160.389 379.868C162.997 389.912 164.725 395.365 165.59 396.21C166.96 399.11 168.48 401.527 170.134 403.475C173.204 407.342 177.331 409.275 182.517 409.26L185.154 408.928C208.414 386.257 222.986 372.981 228.857 369.069L318.693 313.322C326.173 306.783 331.894 300.605 335.843 294.76L338.227 291.392L347.838 273.102L354.752 254.857L358.969 236.627L360.488 218.442L359.311 200.303L355.452 182.194L348.896 164.115L339.643 146.066L327.707 128.063C321.524 122.444 316.249 119.257 311.868 118.517Z" fill="#622F10"/>
</g>
<mask id="mask3_111_6" style="mask-type:luminance" maskUnits="userSpaceOnUse" x="0" y="116" width="203" height="294">
<path d="M0 116.418H202.945V410H0V116.418Z" fill="white"/>
</mask>
<g mask="url(#mask3_111_6)">
<path d="M48.7993 118.517L49.1718 118.532C50.1254 118.608 50.8704 119.031 51.4069 119.756C41.3192 147.894 35.7762 169.054 34.763 183.221C33.6007 203.822 36.4318 222.867 43.2563 240.342C51.0343 257.228 62.3885 271.788 77.304 284.037C83.4728 290.879 106.733 306.027 147.068 329.468C153.475 333.939 159.823 339.512 166.141 346.188C176.214 357.289 183.575 372.755 188.224 392.555L200.278 379.868C197.67 389.912 195.927 395.365 195.063 396.21C193.692 399.11 192.187 401.527 190.533 403.475C187.464 407.342 183.336 409.275 178.151 409.26L175.513 408.928C152.254 386.257 137.681 372.981 131.81 369.069L41.9748 313.322C34.4948 306.783 28.7729 300.605 24.8243 294.76L22.4402 291.392L12.8294 273.102L5.91554 254.857L1.69869 236.627L0.178833 218.442L1.34107 200.303L5.21521 182.194L11.7714 164.115L21.0247 146.066L32.96 128.063C39.1437 122.444 44.4185 119.257 48.7993 118.517Z" fill="#622F10"/>
</g>
</svg>
