<svg width="639" height="683" viewBox="0 0 639 683" fill="none" xmlns="http://www.w3.org/2000/svg">
<path d="M22.65 552C17.7 552 13.95 547.8 12.75 543C10.5 539.4 9.6 534.9 9.6 529.8C9.6 514.5 16.05 494.85 19.2 485.1L15.6 482.4C13.95 481.2 14.4 479.25 16.2 478.05C21.6 474.45 23.4 473.1 24.9 472.05C25.5 468.75 26.1 466.05 27.6 460.95C28.2 458.85 29.85 458.25 31.65 459.45C34.35 461.25 37.2 462.9 38.85 464.4C51.6 459.3 58.5 458.55 67.05 458.55C71.85 458.55 80.7 460.65 82.35 467.4C85.05 468 86.1 471 86.1 474.6C86.1 488.1 67.5 509.7 45.45 516.6C58.8 528.3 74.55 529.65 77.25 527.55C79.35 525.75 80.55 533.1 73.05 537C65.55 540.9 51 539.7 28.5 521.85C27.9 526.2 27.15 532.05 27.15 536.4C27.15 540 27.6 542.7 28.95 542.7C29.55 542.7 30.15 542.25 30.6 541.65C31.65 540.15 31.95 541.95 31.95 542.55C31.95 548.4 28.2 552 22.65 552ZM33.15 503.25C49.8 501 72.45 488.7 72.45 476.7C72.45 472.95 63.75 473.4 60 474.15C55.05 475.05 45.9 477.45 41.1 480.15C38.55 486.9 35.7 495.6 33.15 503.25ZM100.754 554.4C91.6043 554.4 76.7543 545.85 76.7543 533.25C76.7543 519 84.8543 506.85 93.1043 501.6C96.5543 499.5 98.8043 498.75 100.604 498.75C103.304 498.75 105.254 500.55 109.754 502.65C115.454 506.1 116.504 509.25 116.504 513.3C116.504 515.1 116.204 517.2 116.204 519.6C115.004 530.85 107.654 533.85 101.504 533.85C97.9043 533.85 94.6043 532.8 93.2543 531.75C92.5043 534 92.2043 535.95 92.2043 537.75C92.2043 543.6 96.4043 545.85 102.554 545.85C107.954 545.85 113.054 542.25 117.254 539.1C118.154 538.5 118.154 539.7 118.154 540.3C118.154 546.9 112.004 554.4 100.754 554.4ZM95.5043 527.7C96.2543 527.7 97.7543 527.1 100.154 525.9C103.754 522.45 106.154 518.4 106.754 513.45C102.854 514.95 100.004 518.85 97.6043 522.3C95.2043 526.2 94.4543 527.7 95.5043 527.7ZM133.875 556.5C132.825 556.5 131.475 555.75 129.675 554.7C123.825 551.25 121.875 546.6 121.875 541.2C121.875 535.05 124.125 528.3 125.925 522.9C128.625 514.95 133.725 502.5 135.825 496.35C137.625 490.95 149.325 499.5 149.325 504.15C149.325 506.55 146.625 517.05 140.475 535.8C147.075 524.85 154.575 515.85 156.525 513.3C159.975 508.65 163.275 506.85 164.775 506.85C170.025 506.85 179.025 508.65 179.025 517.05C179.025 521.25 177.075 526.65 175.875 532.05C182.625 523.5 185.325 519.45 190.875 513.15C191.625 512.4 192.975 511.5 194.625 511.5C199.875 511.5 208.725 515.55 208.125 519.45C207.075 525.6 204.525 533.1 204.525 537.9C204.525 539.4 204.675 540.9 206.775 540.9C208.575 540.9 211.575 540 215.175 538.2C216.825 537.3 215.475 540.3 214.575 541.65C211.125 546.3 205.425 549 203.325 549C198.225 549 194.625 543.75 193.125 539.1C191.925 534.9 191.925 529.2 192.225 526.8C182.625 539.7 174.675 550.2 169.575 550.2C167.775 550.2 166.575 548.55 164.925 547.35C160.125 544.05 158.625 540.45 158.625 536.25C158.625 531.9 159.975 527.25 160.425 522.75C154.725 530.7 150.825 536.1 144.075 546C140.325 551.4 137.325 556.5 133.875 556.5ZM240.061 554.4C230.911 554.4 216.061 545.85 216.061 533.25C216.061 519 224.161 506.85 232.411 501.6C235.861 499.5 238.111 498.75 239.911 498.75C242.611 498.75 244.561 500.55 249.061 502.65C254.761 506.1 255.811 509.25 255.811 513.3C255.811 515.1 255.511 517.2 255.511 519.6C254.311 530.85 246.961 533.85 240.811 533.85C237.211 533.85 233.911 532.8 232.561 531.75C231.811 534 231.511 535.95 231.511 537.75C231.511 543.6 235.711 545.85 241.861 545.85C247.261 545.85 252.361 542.25 256.561 539.1C257.461 538.5 257.461 539.7 257.461 540.3C257.461 546.9 251.311 554.4 240.061 554.4ZM234.811 527.7C235.561 527.7 237.061 527.1 239.461 525.9C243.061 522.45 245.461 518.4 246.061 513.45C242.161 514.95 239.311 518.85 236.911 522.3C234.511 526.2 233.761 527.7 234.811 527.7ZM313.382 553.8C304.982 553.8 297.632 545.85 297.632 534.6C297.632 530.85 297.932 528.3 298.532 524.25C287.582 537.15 279.482 546.6 276.632 548.85C273.332 551.4 272.732 551.55 271.682 551.55C268.082 551.55 259.532 544.65 259.532 537.6C259.532 531.75 266.732 513.3 271.532 500.25C272.582 497.4 271.532 495.3 274.532 495.3C276.632 495.3 287.132 500.85 285.332 508.2C283.532 515.1 280.982 522 277.832 532.2C285.782 523.2 292.082 515.55 299.282 509.85C300.632 508.8 302.132 508.2 303.632 508.2C309.782 508.2 317.282 516.75 317.282 520.8C317.282 527.55 311.132 538.65 311.132 543.75C311.132 544.95 311.282 546.75 313.382 546.75C315.932 546.75 324.032 542.25 328.832 538.5C331.532 536.55 328.532 546 325.082 549.3C322.082 552.15 318.332 553.8 313.382 553.8ZM395.114 552.6C378.914 552.6 364.664 536.55 364.664 518.25C364.664 492.15 391.214 460.5 406.064 461.55C409.364 461.7 411.164 463.35 414.764 466.95C416.714 468.9 418.214 470.85 418.664 473.25C421.214 473.4 423.464 477.45 423.464 479.7C423.464 485.4 418.814 495.3 408.164 498.75C405.464 499.65 402.464 500.25 403.514 497.7C405.614 492.75 407.264 487.05 408.014 478.8C395.414 489.15 383.114 509.85 383.114 526.8C383.114 537.45 390.164 541.5 393.764 541.5C403.964 541.5 411.314 534.45 420.014 528.6C421.664 527.4 423.014 526.8 422.714 528.6C420.614 541.65 406.364 552.6 395.114 552.6ZM436.732 552C428.182 552 420.532 544.5 420.082 536.1C419.182 521.85 428.932 507.45 438.982 500.85C439.882 500.25 442.282 500.1 443.182 501C450.832 507.3 462.382 510.45 462.082 521.55C461.632 536.4 447.382 552 436.732 552ZM435.982 535.95C435.082 540.45 435.982 544.5 437.182 544.5C439.132 544.5 440.932 542.55 442.582 539.85C450.982 526.05 449.782 516 449.632 514.2C443.182 518.7 438.232 525.45 435.982 535.95ZM480.977 570C476.777 570 473.777 568.05 471.077 565.8C466.427 562.95 464.927 556.8 464.927 549.9C464.927 540.3 470.177 522.45 471.827 517.5C471.077 516.6 469.727 515.55 469.127 514.95C466.127 511.95 465.977 510.15 467.627 509.7C470.627 509.1 473.027 508.8 475.277 508.5C479.027 496.05 485.927 481.05 495.527 468.45C498.827 464.25 497.477 463.8 497.477 463.5C497.477 463.2 497.627 463.2 498.527 462.9C499.427 462.75 500.177 462.75 502.127 462.75C505.577 462.75 509.027 463.65 510.677 464.4C517.127 467.25 518.177 472.5 518.627 476.7C518.927 480 518.477 484.35 516.377 487.95C514.127 491.85 509.627 497.25 506.477 497.25C505.877 497.25 505.127 497.1 505.577 494.4C506.627 488.25 507.527 483.3 507.227 480C500.777 489.9 495.977 501 493.277 507.6C498.527 507.6 502.277 509.7 504.977 511.65C508.877 514.5 507.677 515.85 505.277 516.6C499.427 518.55 494.177 519 488.627 519.6C484.427 531.45 481.277 549.9 481.277 557.85C481.277 562.2 482.027 566.25 485.027 566.25C486.377 566.25 488.027 565.65 488.177 565.65C488.927 565.65 487.427 568.95 483.527 569.7C482.627 569.85 481.727 570 480.977 570ZM520.968 570C516.768 570 513.768 568.05 511.068 565.8C506.418 562.95 504.918 556.8 504.918 549.9C504.918 540.3 510.168 522.45 511.818 517.5C511.068 516.6 509.718 515.55 509.118 514.95C506.118 511.95 505.968 510.15 507.618 509.7C510.618 509.1 513.018 508.8 515.268 508.5C519.018 496.05 525.918 481.05 535.518 468.45C538.818 464.25 537.468 463.8 537.468 463.5C537.468 463.2 537.618 463.2 538.518 462.9C539.418 462.75 540.168 462.75 542.118 462.75C545.568 462.75 549.018 463.65 550.668 464.4C557.118 467.25 558.168 472.5 558.618 476.7C558.918 480 558.468 484.35 556.368 487.95C554.118 491.85 549.618 497.25 546.468 497.25C545.868 497.25 545.118 497.1 545.568 494.4C546.618 488.25 547.518 483.3 547.218 480C540.768 489.9 535.968 501 533.268 507.6C538.518 507.6 542.268 509.7 544.968 511.65C548.868 514.5 547.668 515.85 545.268 516.6C539.418 518.55 534.168 519 528.618 519.6C524.418 531.45 521.268 549.9 521.268 557.85C521.268 562.2 522.018 566.25 525.018 566.25C526.368 566.25 528.018 565.65 528.168 565.65C528.918 565.65 527.418 568.95 523.518 569.7C522.618 569.85 521.718 570 520.968 570ZM572.288 554.4C563.138 554.4 548.287 545.85 548.287 533.25C548.287 519 556.388 506.85 564.638 501.6C568.088 499.5 570.338 498.75 572.138 498.75C574.838 498.75 576.788 500.55 581.288 502.65C586.987 506.1 588.037 509.25 588.037 513.3C588.037 515.1 587.738 517.2 587.738 519.6C586.538 530.85 579.188 533.85 573.038 533.85C569.438 533.85 566.138 532.8 564.788 531.75C564.038 534 563.738 535.95 563.738 537.75C563.738 543.6 567.938 545.85 574.088 545.85C579.488 545.85 584.588 542.25 588.788 539.1C589.688 538.5 589.688 539.7 589.688 540.3C589.688 546.9 583.538 554.4 572.288 554.4ZM567.038 527.7C567.788 527.7 569.288 527.1 571.688 525.9C575.288 522.45 577.688 518.4 578.288 513.45C574.388 514.95 571.538 518.85 569.138 522.3C566.738 526.2 565.988 527.7 567.038 527.7ZM617.258 554.4C608.108 554.4 593.258 545.85 593.258 533.25C593.258 519 601.358 506.85 609.608 501.6C613.058 499.5 615.308 498.75 617.108 498.75C619.808 498.75 621.758 500.55 626.258 502.65C631.958 506.1 633.008 509.25 633.008 513.3C633.008 515.1 632.708 517.2 632.708 519.6C631.508 530.85 624.158 533.85 618.008 533.85C614.408 533.85 611.108 532.8 609.758 531.75C609.008 534 608.708 535.95 608.708 537.75C608.708 543.6 612.908 545.85 619.058 545.85C624.458 545.85 629.558 542.25 633.758 539.1C634.658 538.5 634.658 539.7 634.658 540.3C634.658 546.9 628.508 554.4 617.258 554.4ZM612.008 527.7C612.758 527.7 614.258 527.1 616.658 525.9C620.258 522.45 622.658 518.4 623.258 513.45C619.358 514.95 616.508 518.85 614.108 522.3C611.708 526.2 610.958 527.7 612.008 527.7Z" fill="#622F10"/>
<path d="M118.44 572.6C119.293 570.68 120.307 568.653 121.48 566.52C122.653 564.387 123.907 562.227 125.24 560.04C126.573 557.853 127.853 555.8 129.08 553.88H134.36C133.453 555.96 132.493 558.173 131.48 560.52C130.52 562.867 129.587 565.16 128.68 567.4C127.827 569.587 127.08 571.613 126.44 573.48H118.76L118.44 572.6ZM103.8 572.6C104.653 570.68 105.64 568.653 106.76 566.52C107.933 564.387 109.16 562.227 110.44 560.04C111.773 557.853 113.053 555.8 114.28 553.88H119.64C118.947 555.48 118.227 557.133 117.48 558.84C116.787 560.547 116.093 562.28 115.4 564.04C114.707 565.747 114.04 567.4 113.4 569C112.76 570.6 112.2 572.093 111.72 573.48H104.04L103.8 572.6ZM142.792 612.28C139.432 612.28 135.432 609.24 135.432 604.76C135.432 593.96 141.832 577.16 143.032 572.68C142.232 572.84 140.552 573 139.112 573.32C132.952 574.76 132.232 572.6 130.472 568.84C129.912 568.28 129.512 567.72 129.512 567C129.512 565.24 132.552 567.4 136.632 566.84C139.192 566.52 140.952 566.04 146.072 565.32C146.712 563.64 148.312 561.24 149.032 560.44C149.752 559.56 150.552 559.56 151.752 560.68C152.792 561.72 154.072 563.32 154.552 564.68C168.472 562.6 171.272 566.44 171.912 568.92C172.312 570.68 171.592 570.6 170.312 570.36C168.792 570.04 166.232 570.12 164.552 570.36C158.472 571.16 154.152 571.88 153.592 572.12C151.992 576.04 150.792 579.96 149.592 583.96C146.952 592.84 143.672 606.12 145.272 611.16C145.512 611.96 144.152 612.28 142.792 612.28ZM183.315 612.04C179.235 612.04 173.635 609.72 172.675 604.28C170.035 607.56 166.115 611.8 162.275 611.8C158.995 611.8 155.635 608.6 155.635 604.6C155.635 597.4 163.155 585 169.395 585C171.555 585 174.915 588.2 176.755 589.72C177.635 588.2 178.355 586.68 178.915 584.76C179.155 583.88 179.955 583.56 181.075 584.28C182.835 585.4 184.275 586.6 185.635 588.12C186.195 588.76 186.275 589.24 185.475 591.16C184.275 593.96 180.435 601.48 180.435 606.04C180.435 607.16 180.915 608.44 182.035 608.44C184.115 608.44 187.875 604.68 190.915 602.04C191.235 601.72 191.555 602.44 191.555 603.16V603.4C191.555 606.28 187.875 612.04 183.315 612.04ZM163.475 606.12C163.715 606.28 166.835 603.96 169.715 600.68C172.275 597.88 174.675 594.12 174.915 592.28C172.995 592.68 169.395 595.56 167.075 598.52C164.355 602.12 162.995 605.88 163.475 606.12ZM193.212 615.88C189.212 615.88 186.172 611.56 186.172 608.36C186.172 605.56 190.492 601.72 196.252 598.28C193.852 597 191.452 595.48 191.452 592.76C191.452 588.04 198.012 583.64 202.172 583.64C205.452 583.64 209.292 586.76 209.292 588.2C209.292 588.92 208.492 588.92 207.452 589.24C205.052 589.96 200.172 592.76 200.172 594.36C200.172 594.84 200.492 595.24 201.052 595.72C207.772 592.36 215.292 589.8 220.172 589.48C221.692 589.4 220.252 591.48 215.372 593.88C213.292 594.92 209.772 596.6 206.012 598.6C207.452 599.64 208.652 600.92 208.652 602.76C208.652 608.68 201.932 615.88 193.212 615.88ZM191.852 609C195.292 609 200.732 604.52 200.732 602.12L200.652 601.64C196.972 603.96 193.692 606.52 191.852 609ZM221.135 615.56C220.255 615.56 218.255 615.32 216.815 614.28C213.935 612.2 213.615 608.68 213.615 606.36C213.615 601 216.015 595.16 216.575 593.24C214.895 592.12 213.135 590.92 212.015 589.88C211.375 589.32 209.935 587.96 212.415 587.4C214.895 586.84 216.815 586.76 218.495 586.68C220.975 579.8 222.815 576.04 223.055 573.88C223.455 570.76 231.695 576.28 230.655 578.68C229.775 580.68 228.495 584.12 227.695 586.2C228.735 586.2 230.175 586.28 233.135 589.48C234.335 590.76 234.255 591.8 232.895 592.04C230.815 592.44 228.095 592.84 225.215 593.48C224.575 594.76 221.535 603.64 221.535 610.44C221.535 612.6 222.255 613.72 223.375 613.96C225.055 614.36 223.775 615.56 221.135 615.56ZM244.923 613.88C240.043 613.88 232.123 609.32 232.123 602.6C232.123 595 236.443 588.52 240.843 585.72C242.683 584.6 243.883 584.2 244.843 584.2C246.283 584.2 247.323 585.16 249.723 586.28C252.763 588.12 253.323 589.8 253.323 591.96C253.323 592.92 253.163 594.04 253.163 595.32C252.523 601.32 248.603 602.92 245.323 602.92C243.403 602.92 241.643 602.36 240.923 601.8C240.523 603 240.363 604.04 240.363 605C240.363 608.12 242.603 609.32 245.883 609.32C248.763 609.32 251.483 607.4 253.723 605.72C254.203 605.4 254.203 606.04 254.203 606.36C254.203 609.88 250.923 613.88 244.923 613.88ZM242.123 599.64C242.523 599.64 243.323 599.32 244.603 598.68C246.523 596.84 247.803 594.68 248.123 592.04C246.043 592.84 244.523 594.92 243.243 596.76C241.963 598.84 241.563 599.64 242.123 599.64ZM280.643 612.6C279.603 612.6 278.563 612.28 277.523 611.72C272.643 609.56 270.803 606.2 270.803 601.72C270.803 595.24 276.243 587.4 277.043 585.4C277.843 583.32 285.043 588.52 283.683 591.4C282.083 594.76 279.443 601.64 279.443 605.72C279.443 606.6 279.443 608.2 280.562 608.2C282.483 608.2 289.763 602.6 290.003 602.36C290.803 601.56 290.803 603.08 290.803 603.56C290.803 604.44 290.083 605.64 289.603 606.36C286.723 610.52 282.723 612.6 280.643 612.6ZM280.163 577C280.083 575.16 280.562 570.6 282.163 570.2C283.523 569.88 285.763 571.24 286.803 572.04C289.043 573.72 289.443 574.84 289.443 575.88C289.443 577.8 287.203 582.04 283.363 582.04C281.763 582.04 280.323 580.12 280.163 577ZM297.151 615.56C296.271 615.56 294.271 615.32 292.831 614.28C289.951 612.2 289.631 608.68 289.631 606.36C289.631 601 292.031 595.16 292.591 593.24C290.911 592.12 289.151 590.92 288.031 589.88C287.391 589.32 285.951 587.96 288.431 587.4C290.911 586.84 292.831 586.76 294.511 586.68C296.991 579.8 298.831 576.04 299.071 573.88C299.471 570.76 307.711 576.28 306.671 578.68C305.791 580.68 304.511 584.12 303.711 586.2C304.751 586.2 306.191 586.28 309.151 589.48C310.351 590.76 310.271 591.8 308.911 592.04C306.831 592.44 304.111 592.84 301.231 593.48C300.591 594.76 297.551 603.64 297.551 610.44C297.551 612.6 298.271 613.72 299.391 613.96C301.071 614.36 299.791 615.56 297.151 615.56ZM308.459 622.84C307.179 623.64 306.219 622.76 306.699 621.32C308.859 615.56 311.979 608.2 311.979 605.88C311.979 605.24 311.819 604.28 311.659 603.32C311.499 602.12 312.379 601.48 313.579 602.04C317.739 603.88 320.299 606.2 320.299 609C320.299 613.08 316.539 616.92 312.619 619.96C311.179 621.16 309.899 621.96 308.459 622.84ZM351.494 614.2C347.334 614.2 346.934 613.64 345.974 612.2C341.654 610.28 341.494 603.16 342.214 599.96C343.894 592.68 346.134 587.56 346.934 585.08C349.494 577.32 354.934 564.44 355.414 561.4C355.894 558.52 363.574 565.4 363.574 567.56C363.574 568.84 362.854 571.32 361.894 573.72C358.854 581.16 357.894 583.32 355.814 590.44C354.614 594.44 352.374 601 352.374 605.24C352.374 607.24 352.374 608.84 354.134 608.84C359.094 608.84 372.134 598.2 373.414 597.56C373.734 597.4 373.894 597.88 373.894 598.2C373.894 599.4 367.894 606.92 365.174 608.84C361.094 611.72 357.654 614.2 351.494 614.2ZM378.799 612.6C374.239 612.6 370.159 608.6 369.919 604.12C369.439 596.52 374.639 588.84 379.999 585.32C380.479 585 381.759 584.92 382.239 585.4C386.319 588.76 392.479 590.44 392.319 596.36C392.079 604.28 384.479 612.6 378.799 612.6ZM378.399 604.04C377.919 606.44 378.399 608.6 379.039 608.6C380.079 608.6 381.039 607.56 381.919 606.12C386.399 598.76 385.759 593.4 385.679 592.44C382.239 594.84 379.599 598.44 378.399 604.04ZM403.676 612.6C400.956 612.6 398.716 611.56 397.276 606.2C395.676 600.28 395.276 592.92 394.956 588.28C394.876 586.04 393.916 583.8 396.716 584.28C398.796 584.68 403.036 588.12 403.596 589.16C404.236 590.2 404.556 591.4 404.636 592.6C404.876 595.96 405.116 598.12 405.676 601.64C408.236 596.68 411.356 592.28 415.036 585.08C415.916 583.4 420.236 587.08 419.596 588.04C414.956 594.92 407.676 607.96 406.236 610.28C405.996 611.56 405.596 612.6 403.676 612.6ZM432.111 613.88C427.231 613.88 419.311 609.32 419.311 602.6C419.311 595 423.631 588.52 428.031 585.72C429.871 584.6 431.071 584.2 432.031 584.2C433.471 584.2 434.511 585.16 436.911 586.28C439.951 588.12 440.511 589.8 440.511 591.96C440.511 592.92 440.351 594.04 440.351 595.32C439.711 601.32 435.791 602.92 432.511 602.92C430.591 602.92 428.831 602.36 428.111 601.8C427.711 603 427.551 604.04 427.551 605C427.551 608.12 429.791 609.32 433.071 609.32C435.951 609.32 438.671 607.4 440.911 605.72C441.391 605.4 441.391 606.04 441.391 606.36C441.391 609.88 438.111 613.88 432.111 613.88ZM429.311 599.64C429.711 599.64 430.511 599.32 431.791 598.68C433.711 596.84 434.991 594.68 435.311 592.04C433.231 592.84 431.711 594.92 430.431 596.76C429.151 598.84 428.751 599.64 429.311 599.64ZM482.205 612.6C481.165 612.6 480.125 612.28 479.085 611.72C474.205 609.56 472.365 606.2 472.365 601.72C472.365 595.24 477.805 587.4 478.605 585.4C479.405 583.32 486.605 588.52 485.245 591.4C483.645 594.76 481.005 601.64 481.005 605.72C481.005 606.6 481.005 608.2 482.125 608.2C484.045 608.2 491.325 602.6 491.565 602.36C492.365 601.56 492.365 603.08 492.365 603.56C492.365 604.44 491.645 605.64 491.165 606.36C488.285 610.52 484.285 612.6 482.205 612.6ZM481.725 577C481.645 575.16 482.125 570.6 483.725 570.2C485.085 569.88 487.325 571.24 488.365 572.04C490.605 573.72 491.005 574.84 491.005 575.88C491.005 577.8 488.765 582.04 484.925 582.04C483.325 582.04 481.885 580.12 481.725 577ZM498.713 615.56C497.833 615.56 495.833 615.32 494.393 614.28C491.513 612.2 491.193 608.68 491.193 606.36C491.193 601 493.593 595.16 494.153 593.24C492.473 592.12 490.713 590.92 489.593 589.88C488.953 589.32 487.513 587.96 489.993 587.4C492.473 586.84 494.393 586.76 496.073 586.68C498.553 579.8 500.393 576.04 500.633 573.88C501.033 570.76 509.273 576.28 508.233 578.68C507.353 580.68 506.073 584.12 505.273 586.2C506.313 586.2 507.753 586.28 510.713 589.48C511.913 590.76 511.833 591.8 510.473 592.04C508.393 592.44 505.673 592.84 502.793 593.48C502.153 594.76 499.113 603.64 499.113 610.44C499.113 612.6 499.833 613.72 500.953 613.96C502.633 614.36 501.353 615.56 498.713 615.56ZM529.301 573.48C530.261 571.347 531.221 569.133 532.181 566.84C533.141 564.493 534.048 562.2 534.901 559.96C535.755 557.72 536.501 555.693 537.141 553.88H544.901L545.221 554.76C544.421 556.627 543.435 558.653 542.261 560.84C541.088 562.973 539.835 565.133 538.501 567.32C537.168 569.453 535.861 571.507 534.581 573.48H529.301ZM514.581 573.48C515.541 571.347 516.501 569.133 517.461 566.84C518.475 564.493 519.408 562.2 520.261 559.96C521.168 557.72 521.915 555.693 522.501 553.88H530.181L530.501 554.76C529.648 556.627 528.635 558.653 527.461 560.84C526.341 562.973 525.115 565.133 523.781 567.32C522.501 569.453 521.221 571.507 519.941 573.48H514.581Z" fill="#622F10"/>
<mask id="mask0_111_2" style="mask-type:luminance" maskUnits="userSpaceOnUse" x="307" y="0" width="81" height="156">
<path d="M307.615 0H387.72V155.083H307.615V0Z" fill="white"/>
</mask>
<g mask="url(#mask0_111_2)">
<path d="M351.243 -0.0152588L344.136 1.35916C326.091 5.8147 315.154 16.659 311.354 33.9072L315.184 116.357C314.707 124.136 314.633 130.902 314.96 136.672C315.661 148.135 317.032 153.663 319.088 153.255L319.952 152.757C321.129 148.029 323.141 141.973 326.002 134.587C327.313 131.174 329.31 127.458 331.992 123.441C335.523 118.396 346.49 105.8 364.862 85.667C367.589 82.45 370.539 78.3116 373.698 73.267C378.109 65.6246 381.327 57.3781 383.339 48.5728C384.576 42.9392 385.112 37.3962 384.978 31.9438L383.965 25.8118L382.266 20.3292L379.897 15.481C374.443 6.44905 364.892 1.28364 351.243 -0.0152588Z" fill="#622F10"/>
</g>
<mask id="mask1_111_2" style="mask-type:luminance" maskUnits="userSpaceOnUse" x="250" y="0" width="81" height="156">
<path d="M250.396 0H330.501V155.083H250.396V0Z" fill="white"/>
</mask>
<g mask="url(#mask1_111_2)">
<path d="M287.424 -0.0152588L294.532 1.35916C312.576 5.8147 323.498 16.659 327.313 33.9072L323.483 116.357C323.945 124.136 324.02 130.902 323.707 136.672C323.007 148.135 321.636 153.663 319.579 153.255L318.7 152.757C317.538 148.029 315.527 141.973 312.666 134.587C311.354 131.174 309.343 127.458 306.676 123.441C303.129 118.396 292.177 105.8 273.79 85.667C271.078 82.45 268.128 78.3116 264.969 73.267C260.544 65.6246 257.34 57.3781 255.313 48.5728C254.092 42.9392 253.54 37.3962 253.689 31.9438L254.703 25.8118L256.386 20.3292L258.77 15.481C264.224 6.44905 273.76 1.28364 287.424 -0.0152588Z" fill="#622F10"/>
</g>
<path d="M384.069 93.6116L383.935 93.7022C383.592 93.9892 383.324 94.5329 383.16 95.3183C381.864 105.347 380.359 112.914 378.63 118.019C376.678 124.181 373.922 129.875 370.36 135.116C367.172 140.04 361.867 146.353 354.447 154.086C350.334 158.104 342.72 164.341 331.589 172.799C330.055 174.144 328.594 175.563 327.223 177.074C322.977 181.786 319.624 187.057 317.195 192.902C315.124 197.826 313.381 204.924 311.98 214.183C312.621 222.867 313.694 231.22 315.199 239.24C316.361 243.348 318 244.798 320.146 243.589C321.233 242.623 324.363 237.76 329.533 229.03C330.561 227.655 331.738 226.341 333.05 225.057C335.627 222.384 339.308 219.469 344.076 216.297C355.341 208.61 366.054 201.511 376.216 195.001C379.465 192.676 381.625 191.014 382.698 190.048C389.061 184.988 394.022 178.448 397.584 170.428C401.637 160.475 402.501 148.528 400.176 134.587C398.388 124.846 395.542 115.074 391.609 105.271C390.521 102.659 389.478 100.453 388.45 98.6864C387.898 97.2666 386.438 95.575 384.069 93.6116Z" fill="#622F10"/>
<path d="M254.598 93.6116L254.732 93.7022C255.075 93.9892 255.328 94.5329 255.507 95.3183C256.789 105.347 258.309 112.914 260.037 118.019C261.974 124.181 264.731 129.875 268.307 135.116C271.495 140.04 276.8 146.353 284.206 154.086C288.333 158.104 295.947 164.341 307.063 172.799C308.613 174.144 310.058 175.563 311.429 177.074C315.69 181.786 319.028 187.057 321.472 192.902C323.543 197.826 325.286 204.924 326.687 214.183C326.046 222.867 324.973 231.22 323.468 239.24C322.306 243.348 320.667 244.798 318.522 243.589C317.434 242.623 314.305 237.76 309.134 229.03C308.106 227.655 306.929 226.341 305.618 225.057C303.025 222.384 299.359 219.469 294.591 216.297C283.312 208.61 272.598 201.511 262.451 195.001C259.203 192.676 257.027 191.014 255.954 190.048C249.607 184.988 244.645 178.448 241.084 170.428C237.031 160.475 236.166 148.528 238.491 134.587C240.279 124.846 243.125 115.074 247.059 105.271C248.131 102.659 249.189 100.453 250.218 98.6864C250.754 97.2666 252.229 95.575 254.598 93.6116Z" fill="#622F10"/>
<path d="M419.398 105.12L420.471 116.78C421.499 131.99 420.888 145.84 418.653 158.33C416.954 169.884 412.544 181.952 405.391 194.548C401.666 201.3 394.559 209.546 384.069 219.318C376.306 226.009 362.567 236.128 342.824 249.661C340.276 251.504 336.67 254.827 332.021 259.629C327.059 265.535 324.318 269.054 323.766 270.187C322.217 272.498 320.846 274.793 319.669 277.059C318.477 279.34 317.493 281.59 316.674 283.81C315.869 286.046 315.243 288.266 314.811 290.456L309.626 303.596C312.874 328.622 316.257 339.859 319.803 337.292C329.518 325.058 336.134 317.642 339.635 315.044C377.632 292.238 400.668 277.014 408.729 269.371C418.385 259.705 425.537 250.129 430.156 240.659C435.833 230.057 440.274 218.276 443.492 205.302C444.371 201.209 444.982 197.131 445.34 193.068L445.668 186.997C445.742 182.949 445.563 178.931 445.116 174.929C438.649 139.36 430.067 116.086 419.398 105.12Z" fill="#622F10"/>
<path d="M219.269 105.12L218.196 116.78C217.168 131.99 217.779 145.84 220.014 158.33C221.713 169.884 226.123 181.952 233.276 194.548C237.001 201.3 244.108 209.546 254.583 219.318C262.347 226.009 276.1 236.128 295.843 249.661C298.391 251.504 301.982 254.827 306.646 259.629C311.608 265.535 314.349 269.054 314.901 270.187C316.45 272.498 317.821 274.793 318.998 277.059C320.176 279.34 321.174 281.59 321.979 283.81C322.798 286.046 323.424 288.266 323.856 290.456L329.041 303.596C325.793 328.622 322.396 339.859 318.864 337.292C309.149 325.058 302.533 317.642 299.032 315.044C261.02 292.238 237.999 277.014 229.923 269.371C220.268 259.705 213.13 250.129 208.511 240.659C202.834 230.057 198.394 218.276 195.175 205.302C194.296 201.209 193.685 197.131 193.327 193.068L193 186.997C192.925 182.949 193.104 178.931 193.551 174.929C200.018 139.36 208.6 116.086 219.269 105.12Z" fill="#622F10"/>
<mask id="mask2_111_2" style="mask-type:luminance" maskUnits="userSpaceOnUse" x="296" y="116" width="203" height="294">
<path d="M296.171 116.418H498.237V410H296.171V116.418Z" fill="white"/>
</mask>
<g mask="url(#mask2_111_2)">
<path d="M450.868 118.517L450.496 118.532C449.542 118.608 448.782 119.031 448.26 119.756C458.348 147.894 463.891 169.054 464.889 183.221C466.067 203.822 463.236 222.867 456.411 240.342C448.633 257.228 437.279 271.788 422.363 284.037C416.195 290.879 392.935 306.027 352.599 329.468C346.192 333.939 339.829 339.512 333.526 346.188C323.439 357.289 316.078 372.755 311.444 392.555L299.389 379.868C301.997 389.912 303.725 395.365 304.59 396.21C305.96 399.11 307.48 401.527 309.134 403.475C312.204 407.342 316.331 409.275 321.517 409.26L324.154 408.928C347.414 386.257 361.986 372.981 367.857 369.069L457.693 313.322C465.173 306.783 470.894 300.605 474.843 294.76L477.227 291.392L486.838 273.102L493.752 254.857L497.969 236.627L499.488 218.442L498.311 200.303L494.452 182.194L487.896 164.115L478.643 146.066L466.707 128.063C460.524 122.444 455.249 119.257 450.868 118.517Z" fill="#622F10"/>
</g>
<mask id="mask3_111_2" style="mask-type:luminance" maskUnits="userSpaceOnUse" x="139" y="116" width="203" height="294">
<path d="M139 116.418H341.945V410H139V116.418Z" fill="white"/>
</mask>
<g mask="url(#mask3_111_2)">
<path d="M187.799 118.517L188.172 118.532C189.125 118.608 189.87 119.031 190.407 119.756C180.319 147.894 174.776 169.054 173.763 183.221C172.601 203.822 175.432 222.867 182.256 240.342C190.034 257.228 201.389 271.788 216.304 284.037C222.473 290.879 245.733 306.027 286.068 329.468C292.475 333.939 298.823 339.512 305.141 346.188C315.214 357.289 322.575 372.755 327.224 392.555L339.278 379.868C336.67 389.912 334.927 395.365 334.063 396.21C332.692 399.11 331.187 401.527 329.533 403.475C326.464 407.342 322.336 409.275 317.151 409.26L314.513 408.928C291.254 386.257 276.681 372.981 270.81 369.069L180.975 313.322C173.495 306.783 167.773 300.605 163.824 294.76L161.44 291.392L151.829 273.102L144.916 254.857L140.699 236.627L139.179 218.442L140.341 200.303L144.215 182.194L150.771 164.115L160.025 146.066L171.96 128.063C178.144 122.444 183.419 119.257 187.799 118.517Z" fill="#622F10"/>
</g>
</svg>
